<?xml version="1.0" encoding="utf-8"?>
<!-- Generator: Adobe Illustrator 24.0.1, SVG Export Plug-In . SVG Version: 6.00 Build 0)  -->
<svg version="1.1" id="Capa_1" xmlns="http://www.w3.org/2000/svg" xmlns:xlink="http://www.w3.org/1999/xlink" x="0px" y="0px"
	 viewBox="0 0 15 15" style="enable-background:new 0 0 15 15;" xml:space="preserve">
<style type="text/css">
	.st0{fill-rule:evenodd;clip-rule:evenodd;fill:#004E58;}
	.st1{fill:#FFFFFF;}
</style>
<g id="Capa_1_1_">
</g>
<g>
	<path class="st0" d="M15,7.5c0,4.1-3.4,7.5-7.5,7.5S0,11.6,0,7.5S3.4,0,7.5,0S15,3.4,15,7.5z"/>
	<g>
		<path class="st1" d="M11.8,4.6h-2C9.7,3.9,9.1,3.3,8.3,3.3H6.7c-0.8,0-1.4,0.6-1.5,1.3h-2C2.8,4.6,2.4,5,2.4,5.4v1.9
			c0,0.4,0.4,0.8,0.8,0.8h3.4l0,0C6.7,7.6,7,7.2,7.5,7.2c0.4,0,0.8,0.4,0.9,0.9h3.4c0.4,0,0.8-0.4,0.8-0.8V5.4
			C12.6,5,12.2,4.6,11.8,4.6z M6,4.6c0.1-0.3,0.4-0.5,0.7-0.5h1.6c0.3,0,0.6,0.2,0.7,0.5H6z"/>
		<path class="st1" d="M11.8,8.7c0,0-1.6,0-3.4,0C8.2,9.1,7.9,9.4,7.5,9.4S6.8,9.1,6.6,8.7c-1.6,0-3,0-3.3,0c-0.2,0-0.5,0-0.7-0.1
			v2.3c0,0.4,0.4,0.8,0.8,0.8h8.2c0.4,0,0.8-0.4,0.8-0.8V8.6C12.2,8.7,12,8.7,11.8,8.7z"/>
	</g>
</g>
</svg>
