<?xml version="1.0" encoding="utf-8"?>
<!-- Generator: Adobe Illustrator 24.0.1, SVG Export Plug-In . SVG Version: 6.00 Build 0)  -->
<svg version="1.1" id="Capa_1" xmlns="http://www.w3.org/2000/svg" xmlns:xlink="http://www.w3.org/1999/xlink" x="0px" y="0px"
	 viewBox="0 0 15 15" style="enable-background:new 0 0 15 15;" xml:space="preserve">
<style type="text/css">
	.st0{fill:#004E58;}
</style>
<g id="Modo_de_aislamiento">
	<g>
		<g>
			<path class="st0" d="M7.5,15L7.5,15c-0.1,0-0.3-0.1-0.4-0.2c-0.2-0.2-5.4-5.9-5.4-9C1.7,2.6,4.3,0,7.5,0s5.8,2.6,5.8,5.8
				c0,3.1-5.2,8.8-5.4,9C7.8,14.9,7.6,15,7.5,15z M7.5,1C4.9,1,2.7,3.2,2.7,5.8c0,2.1,3.2,6,4.8,7.9c1.6-1.8,4.8-5.8,4.8-7.9
				C12.3,3.2,10.1,1,7.5,1z"/>
		</g>
		<g>
			<path class="st0" d="M7.5,8.2C6.1,8.2,4.9,7,4.9,5.6C4.9,4.1,6.1,3,7.5,3s2.6,1.2,2.6,2.6S8.9,8.2,7.5,8.2z M7.5,4
				C6.6,4,5.9,4.7,5.9,5.6s0.7,1.6,1.6,1.6s1.6-0.7,1.6-1.6S8.4,4,7.5,4z"/>
		</g>
	</g>
</g>
</svg>
