<?xml version="1.0" encoding="utf-8"?>
<!-- Generator: Adobe Illustrator 24.0.1, SVG Export Plug-In . SVG Version: 6.00 Build 0)  -->
<svg version="1.1" xmlns="http://www.w3.org/2000/svg" xmlns:xlink="http://www.w3.org/1999/xlink" x="0px" y="0px"
	 viewBox="0 0 15 15" style="enable-background:new 0 0 15 15;" xml:space="preserve">
<style type="text/css">
	.st0{fill:#004E58;}
</style>
<g id="Capa_1">
	<g id="Capa_1_2_">
		<g id="Capa_1_1_">
		</g>
	</g>
</g>
<g id="Modo_de_aislamiento">
	<path class="st0" d="M13.9,6.1c-0.1,0-0.2,0-0.4,0c-1.4,0-2.6-0.7-3.4-1.8v6.2c0,2.5-2,4.6-4.6,4.6c-2.5,0-4.6-2-4.6-4.6
		c0-2.5,2-4.6,4.6-4.6l0,0c0.1,0,0.2,0,0.3,0v2.2c-0.1,0-0.2,0-0.3,0c-1.3,0-2.3,1-2.3,2.3c0,1.3,1,2.3,2.3,2.3c1.3,0,2.4-1,2.4-2.3
		L8.1,0h2.1c0.2,1.9,1.8,3.4,3.7,3.6L13.9,6.1"/>
</g>
</svg>
