<?xml version="1.0" encoding="utf-8"?>
<!-- Generator: Adobe Illustrator 24.0.1, SVG Export Plug-In . SVG Version: 6.00 Build 0)  -->
<svg version="1.1" id="Capa_1" xmlns="http://www.w3.org/2000/svg" xmlns:xlink="http://www.w3.org/1999/xlink" x="0px" y="0px"
	 viewBox="0 0 15 15" style="enable-background:new 0 0 15 15;" xml:space="preserve">
<style type="text/css">
	.st0{fill-rule:evenodd;clip-rule:evenodd;fill:#004E58;}
	.st1{fill-rule:evenodd;clip-rule:evenodd;fill:#FFFFFF;}
</style>
<g id="Modo_de_aislamiento">
	<g>
		<path class="st0" d="M15,7.5c0,4.1-3.4,7.5-7.5,7.5S0,11.6,0,7.5S3.4,0,7.5,0S15,3.4,15,7.5z"/>
		<g>
			<g>
				<path class="st1" d="M10.7,9.5c0.3,0,0.6,0.1,0.9,0.1V9.5c0-1.7,0-3.3,0-5c0-0.1,0-0.1-0.1-0.1c-0.6-0.1-1.3-0.2-1.9-0.1
					c-0.5,0-0.9,0.1-1.3,0.2c0,0-0.1,0-0.1,0.1c0,0.2,0,0.5,0,0.7v0.1c-0.5-0.2-0.9-0.2-1.3,0V5.3c0-0.3,0-0.5,0-0.8
					c0-0.1,0-0.1-0.1-0.1c-0.7-0.1-1.3-0.2-2-0.1C4.4,4.3,4,4.4,3.5,4.4c-0.1,0-0.1,0.1-0.1,0.1c0,1.3,0,2.6,0,3.9
					c0,0.4,0,0.7,0,1.1v0.1c0.2,0,0.3,0,0.5-0.1c0.5,0,1.1,0,1.6,0c0.1,0,0.1,0,0.1,0.1C6,10,6.5,10.3,7.1,10.5
					c0.5,0.1,1,0.1,1.5-0.1c0.1,0,0.1,0,0.2,0c0.1,0.1,0.2,0.2,0.4,0.4H9.1c-2.1,0-4.2,0-6.4,0c-0.4,0-0.6-0.2-0.6-0.6
					c0-1.9,0-3.8,0-5.6C2.1,4.2,2.3,4,2.7,4c0.1,0,0.1,0,0.1-0.1c0-0.3,0.2-0.4,0.4-0.5C4,3.2,4.8,3.1,5.6,3.1
					c0.6,0,1.2,0.1,1.8,0.3c0.1,0,0.1,0,0.2,0c0.7-0.2,1.3-0.3,2-0.3s1.4,0.1,2.1,0.3c0.1,0,0.2,0,0.3,0.1c0.2,0.1,0.3,0.2,0.3,0.3
					s0,0.1,0.1,0.1c0.2,0,0.4,0.1,0.5,0.3c0,0.1,0.1,0.2,0.1,0.3c0,1.9,0,3.8,0,5.7c0,0.3-0.2,0.5-0.5,0.6c-0.2,0-0.3,0-0.5,0h-0.1
					C11.4,10.3,11.1,10,10.7,9.5C10.7,9.6,10.7,9.6,10.7,9.5C10.7,9.6,10.7,9.5,10.7,9.5z"/>
				<path class="st1" d="M7.8,5.6c1.1,0,2,0.8,2.3,1.8c0.1,0.5,0,1-0.2,1.5c0,0.1,0,0.1,0,0.2c0.6,0.6,1.1,1.1,1.7,1.7
					c0.2,0.2,0.3,0.4,0.2,0.7c-0.1,0.4-0.6,0.5-0.9,0.3c-0.3-0.2-0.5-0.5-0.8-0.8C9.7,10.6,9.3,10.3,9,9.9H8.9
					c-1.1,0.5-2.3,0.2-3-0.8c-0.6-0.8-0.5-2,0.2-2.8C6.5,5.9,7.1,5.6,7.8,5.6z M7.8,6.2C6.9,6.3,6.1,7,6.1,7.9s0.7,1.6,1.6,1.6
					s1.6-0.7,1.6-1.6C9.4,7,8.7,6.2,7.8,6.2z"/>
			</g>
		</g>
	</g>
</g>
</svg>
