<?xml version="1.0" encoding="utf-8"?>
<!-- Generator: Adobe Illustrator 24.0.1, SVG Export Plug-In . SVG Version: 6.00 Build 0)  -->
<svg version="1.1" id="Capa_1" xmlns="http://www.w3.org/2000/svg" xmlns:xlink="http://www.w3.org/1999/xlink" x="0px" y="0px"
	 viewBox="0 0 15 15" style="enable-background:new 0 0 15 15;" xml:space="preserve">
<style type="text/css">
	.st0{fill-rule:evenodd;clip-rule:evenodd;fill:#004E58;}
	.st1{fill:#FFFFFF;}
</style>
<g id="Modo_de_aislamiento">
	<g>
		<path class="st0" d="M15,7.5c0,4.1-3.4,7.5-7.5,7.5S0,11.6,0,7.5S3.4,0,7.5,0S15,3.4,15,7.5z"/>
		<g>
			<g>
				<path class="st1" d="M8.2,9.6C8,9.7,7.8,9.8,7.5,9.8S7,9.7,6.8,9.6l-3.2-2c0,0-0.3-0.2-0.3,0.2v1.9c0,1,1.9,2.1,4.2,2.1
					s4.2-1.1,4.2-2.1V7.8c0-0.3-0.2-0.2-0.2-0.2L8.2,9.6z"/>
				<path class="st1" d="M12.8,6.1C13,6,13,5.7,12.8,5.6L7.9,3.1C7.7,3,7.3,3,7.1,3.1L2.2,5.6C2,5.7,2,6,2.2,6.1l4.8,3
					c0.2,0.1,0.6,0.1,0.9,0L12.8,6.1z"/>
			</g>
			<path class="st1" d="M12.6,10.5V7.2c0,0,0-0.2-0.1-0.1c-0.1,0-0.3,0.1-0.3,0.2c-0.1,0.1-0.1,0.2-0.1,0.2v3c0,0,0,0.1-0.1,0.1
				c-0.2,0.1-0.3,0.3-0.3,0.5c0,0.3,0.3,0.6,0.6,0.6s0.6-0.3,0.6-0.6C12.9,10.9,12.8,10.7,12.6,10.5C12.6,10.6,12.6,10.6,12.6,10.5
				L12.6,10.5z"/>
		</g>
	</g>
</g>
</svg>
