<?xml version="1.0" encoding="utf-8"?>
<!-- Generator: Adobe Illustrator 24.0.1, SVG Export Plug-In . SVG Version: 6.00 Build 0)  -->
<svg version="1.1" id="Capa_1" xmlns="http://www.w3.org/2000/svg" xmlns:xlink="http://www.w3.org/1999/xlink" x="0px" y="0px"
	 viewBox="0 0 15 15" style="enable-background:new 0 0 15 15;" xml:space="preserve">
<style type="text/css">
	.st0{fill-rule:evenodd;clip-rule:evenodd;fill:#004E58;}
	.st1{fill-rule:evenodd;clip-rule:evenodd;fill:#FFFFFF;}
</style>
<g id="Modo_de_aislamiento">
	<g>
		<path class="st0" d="M15,7.5c0,4.1-3.4,7.5-7.5,7.5S0,11.6,0,7.5S3.4,0,7.5,0S15,3.4,15,7.5z"/>
		<g>
			<path class="st1" d="M3.6,7.5c0-1.5,0-2.9,0-4.4c0-0.7,0.3-1,1-1c1.6,0,3.2,0,4.8,0c0.2,0,0.4,0.1,0.5,0.2
				c0.6,0.6,1.2,1.2,1.8,1.8c0.1,0.1,0.2,0.3,0.2,0.5c0,2.4,0,4.9,0,7.3c0,0.6-0.3,1-1,1c-2.1,0-4.2,0-6.3,0c-0.7,0-1-0.3-1-1
				C3.6,10.4,3.6,8.9,3.6,7.5z M9.3,2.8c-0.1,0-0.2,0-0.3,0c-1.4,0-2.9,0-4.3,0c-0.4,0-0.5,0.1-0.5,0.6c0,2.8,0,5.5,0,8.3
				c0,0.4,0.1,0.6,0.6,0.6c2,0,3.9,0,5.9,0c0.4,0,0.6-0.1,0.6-0.6c0-2.2,0-4.4,0-6.6c0-0.1,0-0.2,0-0.3c-0.1,0-0.1,0-0.1,0
				c-0.4,0-0.7,0-1.1,0C9.7,4.8,9.3,4.4,9.3,4S9.3,3.2,9.3,2.8z M9.7,3.2c0,0.3,0,0.6,0,0.9c0,0.1,0.1,0.3,0.2,0.3
				c0.3,0,0.6,0,0.9,0C10.5,4,10.1,3.6,9.7,3.2z"/>
			<path class="st1" d="M8.2,6.6c-0.6,0-1.1,0-1.7,0c-0.1,0-0.3,0-0.3-0.3S6.4,6,6.5,6c1.1,0,2.2,0,3.3,0c0.1,0,0.3,0,0.3,0.3
				S10,6.6,9.8,6.6C9.3,6.6,8.7,6.6,8.2,6.6z"/>
			<path class="st1" d="M8.1,8c-0.5,0-1,0-1.6,0C6.4,8,6.2,8,6.2,7.7c0-0.1,0.2-0.3,0.3-0.3c1.1,0,2.2,0,3.3,0c0.1,0,0.3,0,0.3,0.4
				C10.1,8.1,9.9,8,9.8,8C9.3,8,8.7,8,8.1,8z"/>
			<path class="st1" d="M8.2,8.8c0.6,0,1.1,0,1.7,0c0.1,0,0.3,0,0.3,0.3s-0.1,0.3-0.3,0.3c-1.1,0-2.2,0-3.3,0c-0.1,0-0.3,0-0.3-0.3
				s0.1-0.3,0.3-0.3C7.1,8.8,7.6,8.8,8.2,8.8z"/>
			<path class="st1" d="M5.6,6.8C5.5,6.5,5.4,6.3,5.4,6.2C5.5,6.1,5.6,6,5.6,6s0.2,0.2,0.2,0.3C5.8,6.4,5.7,6.5,5.6,6.8z"/>
			<path class="st1" d="M5.6,7.2c0.1,0.3,0.2,0.4,0.2,0.5C5.8,7.8,5.7,8,5.6,8c0,0-0.1-0.2-0.2-0.3C5.4,7.6,5.5,7.4,5.6,7.2z"/>
			<path class="st1" d="M5.8,9.2c0,0.1-0.1,0.3-0.2,0.2c-0.1,0-0.1-0.2-0.2-0.3C5.5,9,5.5,8.8,5.6,8.8S5.8,9,5.8,9
				C5.8,9.1,5.8,9.2,5.8,9.2z"/>
		</g>
	</g>
</g>
</svg>
