<?xml version="1.0" encoding="utf-8"?>
<!-- Generator: Adobe Illustrator 24.0.1, SVG Export Plug-In . SVG Version: 6.00 Build 0)  -->
<svg version="1.1" id="Capa_1" xmlns="http://www.w3.org/2000/svg" xmlns:xlink="http://www.w3.org/1999/xlink" x="0px" y="0px"
	 viewBox="0 0 15 15" style="enable-background:new 0 0 15 15;" xml:space="preserve">
<style type="text/css">
	.st0{fill-rule:evenodd;clip-rule:evenodd;fill:#004E58;}
	.st1{fill-rule:evenodd;clip-rule:evenodd;fill:#FFFFFF;}
</style>
<g id="Modo_de_aislamiento">
	<g>
		<path class="st0" d="M15,7.5c0,4.1-3.4,7.5-7.5,7.5S0,11.6,0,7.5S3.4,0,7.5,0S15,3.4,15,7.5z"/>
		<g>
			<path class="st1" d="M3.8,7.4c0-0.2,0-0.5,0-0.7c0-0.1,0.1-0.2,0.2-0.2c0.2,0,0.4,0,0.5,0s0.2,0.1,0.2,0.2c0,0.2,0,0.5,0,0.7l0,0
				C5,7,5.2,6.7,5.5,6.4c0.1-0.1,0.1-0.1,0.2-0.1c0.4,0.1,0.7,0.3,1.1,0.4c0.1,0,0.2,0.1,0.3,0c0.1,0,0.2,0,0.4,0
				c0.1,0,0.1,0,0.1-0.1s0-0.1,0-0.2s0-0.1,0.1-0.2c0.1,0,0.2,0,0.2,0C8.2,6.5,8.5,6.7,8.8,7h0.1C9.2,6.8,9.6,6.6,10,6.5
				c0.1,0,0.2,0,0.3,0c0.5,0,0.9,0,1.4,0c0.7,0,1.3,0.3,1.6,1c0.2,0.3,0.2,0.6,0.2,0.9c0,0.3,0,0.7,0,1c0,0.2-0.1,0.2-0.2,0.2
				c-0.5,0-1,0-1.5,0c-1,0-2.1,0-3.1,0c-0.2,0-0.2-0.1-0.2-0.2c0-0.1,0-0.2,0-0.4C8.3,9.2,8.2,9.3,8,9.3c0,0.1-0.1,0.1-0.1,0.2
				c-0.1,0.1-0.1,0.1-0.2,0c-0.1,0-0.1-0.1-0.1-0.2c0-0.1,0-0.2,0-0.3V8.9c-0.2,0-0.4,0-0.5,0.1c0,0,0,0,0,0.1s0,0.3,0,0.4
				c0,0.3-0.1,0.6-0.1,0.9c0,0.3-0.1,0.6-0.1,0.9c0,0.2-0.1,0.2-0.2,0.2c-1.5,0-2.9,0-4.4,0c-0.2,0-0.2-0.1-0.2-0.2
				c0-0.3,0-0.5-0.1-0.8c0-0.4-0.1-0.8-0.1-1.3c0-0.3,0-0.6-0.1-0.9c0-0.3-0.1-0.7-0.1-1c0-0.2,0-0.4,0-0.6c0-0.1,0-0.1,0.1-0.2
				c0.2,0.1,0.6,0,1.1-0.2c0.1,0,0.2,0,0.3,0.1C3.4,6.7,3.6,7,3.8,7.4L3.8,7.4L3.8,7.4z M5.4,10.3C5.4,10.3,5.4,10.4,5.4,10.3
				c-0.1,0.2-0.2,0.4-0.3,0.6C5.1,11,5,11,4.9,11s-0.1-0.1-0.2-0.1v-0.1c-0.2-0.5-0.2-1-0.1-1.6C4.8,8.3,5.3,7.6,6,7.1
				C6.2,7.1,6.3,7,6.5,7C6.2,6.9,6,6.8,5.8,6.7H5.7C5.6,6.9,5.4,7.1,5.3,7.2C5.1,7.6,4.8,8.1,4.5,8.5c-0.1,0.2-0.3,0.2-0.4,0
				C3.7,7.9,3.3,7.3,2.9,6.7H2.8c-0.3,0.1-0.6,0.2-1,0.4c0,0-0.1,0,0,0c0,0.1,0,0.1,0,0.2c0,0.3,0.1,0.5,0.1,0.8
				c0,0.2,0,0.4,0.1,0.7C2,9,2,9.2,2,9.4S2,9.8,2.1,10c0,0.2,0,0.4,0.1,0.7c0,0.1,0,0.3,0,0.4c0,0,0,0.1,0.1,0.1c0.2,0,0.4,0,0.5,0
				s0.1,0,0.1-0.1c0-0.2,0-0.5,0-0.7c0-0.4,0-0.8,0-1.1c0-0.1,0-0.1,0.1-0.1s0.1,0,0.2,0c0.1,0,0.1,0.1,0.1,0.2c0,0.6,0,1.2,0,1.8
				c0,0.1,0,0.1,0.1,0.1c0.6,0,1.3,0,1.9,0c0.1,0,0.1,0,0.1-0.1C5.4,10.9,5.4,10.6,5.4,10.3z M11,9.3c0.3,0,0.7,0,1,0
				c0.1,0,0.1,0,0.1-0.1c0-0.2,0-0.5,0-0.7c0-0.1,0.1-0.2,0.2-0.2c0.1,0,0.2,0.1,0.2,0.2c0,0.2,0,0.5,0,0.7c0,0,0,0.1,0.1,0.1
				c0.2,0,0.4,0,0.6,0c0.1,0,0.1,0,0.1-0.1c0-0.3,0-0.5,0-0.8s-0.1-0.6-0.2-0.8c-0.3-0.4-0.7-0.7-1.2-0.7c-0.2,0-0.4,0-0.6,0
				c-0.3,0-0.7,0-1,0c-0.4,0-0.7,0.2-1,0.5c0,0,0,0,0,0.1c0.1,0.1,0.2,0.2,0.3,0.3c0.1,0.1,0.1,0.2,0,0.4C9.2,8.3,9,8.5,8.8,8.7
				c0,0-0.1,0.1-0.1,0.2c0,0.1,0,0.3,0,0.4c0,0,0,0.1,0.1,0.1c0.2,0,0.5,0,0.7,0c0.1,0,0.1,0,0.1-0.1c0-0.2,0-0.5,0-0.7V8.5
				c0.1-0.1,0.1-0.1,0.2,0c0.1,0,0.1,0.1,0.1,0.2c0,0.2,0,0.5,0,0.7c0,0.1,0,0.1,0.1,0.1C10.4,9.3,10.7,9.3,11,9.3z M7.9,6.8
				C8,7,7.9,7.1,7.7,7.1c-0.2,0-0.4,0-0.6,0.1C6.4,7.3,5.8,7.7,5.4,8.3C5.1,8.7,5,9.2,5,9.7c0,0.2,0,0.4,0,0.6
				c0.1-0.1,0.1-0.2,0.2-0.3C5.5,9.5,6,9.2,6.5,8.9c0.4-0.2,0.8-0.2,1.2-0.2c0.1,0,0.2,0.1,0.2,0.2V9C8,8.9,8.2,8.8,8.3,8.6
				C8.5,8.4,8.8,8.2,9,8c0,0,0.1,0,0-0.1C8.8,7.6,8.5,7.3,8.2,7C8.1,7,8,6.9,7.9,6.8z M6.6,9.3C6.6,9.3,6.5,9.3,6.6,9.3
				C6.3,9.4,6.1,9.6,6,9.7c-0.1,0.1-0.2,0.2-0.2,0.4c0,0.4,0,0.7,0,1.1c0,0.1,0,0.1,0.1,0.1c0.2,0,0.3,0,0.5,0c0.1,0,0.1,0,0.1-0.1
				c0-0.3,0-0.5,0.1-0.8C6.5,10,6.5,9.6,6.6,9.3z M4.3,8.1C4.3,8,4.4,8,4.4,7.9c0-0.3,0-0.6,0-0.9c0-0.1,0-0.1-0.2-0.1
				c-0.1,0-0.1,0-0.1,0.1c0,0.3,0,0.6,0,0.9C4.2,7.9,4.2,8,4.3,8.1z"/>
			<path class="st1" d="M4.3,2.7c0.8,0,1.5,0.7,1.5,1.4c0,0.9-0.6,1.6-1.5,1.6S2.8,5,2.8,4.2C2.7,3.4,3.4,2.7,4.3,2.7z M4.3,5.4
				c0.6,0,1.2-0.5,1.2-1.1C5.5,3.6,4.9,3,4.3,3C3.6,3,3.1,3.5,3.1,4.2S3.6,5.4,4.3,5.4z"/>
			<path class="st1" d="M11,6.2c-0.7,0-1.3-0.6-1.3-1.3s0.6-1.3,1.3-1.3s1.3,0.6,1.3,1.3C12.2,5.6,11.7,6.2,11,6.2z M11,5.8
				c0.5,0,0.9-0.4,0.9-0.9S11.4,4,11,4c-0.5,0-0.9,0.4-0.9,0.9S10.5,5.8,11,5.8z"/>
		</g>
	</g>
</g>
</svg>
