<?xml version="1.0" encoding="utf-8"?>
<!-- Generator: Adobe Illustrator 24.0.1, SVG Export Plug-In . SVG Version: 6.00 Build 0)  -->
<svg version="1.1" xmlns="http://www.w3.org/2000/svg" xmlns:xlink="http://www.w3.org/1999/xlink" x="0px" y="0px"
	 viewBox="0 0 15 15" style="enable-background:new 0 0 15 15;" xml:space="preserve">
<style type="text/css">
	.st0{fill-rule:evenodd;clip-rule:evenodd;fill:#004E58;}
</style>
<g id="Capa_1">
	<g id="Capa_1_2_">
		<g id="Capa_1_1_">
		</g>
	</g>
</g>
<g id="Modo_de_aislamiento">
	<path class="st0" d="M6.5,9.8c0,0,0,0.1,0,0.1c-0.6,2.2-0.6,2.6-1.2,3.6c-0.3,0.5-0.6,0.9-0.9,1.4c0,0-0.1,0.1-0.1,0.1
		c-0.1,0-0.1-0.1-0.1-0.2c-0.1-0.7-0.1-1.3-0.1-2c0-0.9,0.1-1.2,1.2-5.8c0-0.1,0-0.1,0-0.2C5,6.1,5,5.4,5.2,4.6
		c0.5-1.6,2.3-1.7,2.6-0.4C8,5.1,7.5,6.1,7.1,7.7C6.8,9,8.3,9.9,9.6,9c1.2-0.9,1.7-3,1.6-4.5c-0.2-3-3.4-3.6-5.5-2.6
		C3.4,3,2.8,5.9,3.9,7.2C4,7.4,4.1,7.5,4.1,7.7C4,7.9,3.9,8.2,3.9,8.5C3.8,8.7,3.7,8.8,3.5,8.7c-0.4-0.2-0.7-0.4-1-0.7
		c-0.9-1.1-1.2-3.3,0-5.2c1.3-2.1,3.8-2.9,6-2.7c2.7,0.3,4.4,2.1,4.7,4.2c0.1,1,0,3.3-1.3,4.9c-1.5,1.9-4,2-5.2,0.9
		C6.7,10,6.6,9.9,6.5,9.8z"/>
</g>
</svg>
