<?xml version="1.0" encoding="utf-8"?>
<!-- Generator: Adobe Illustrator 24.0.1, SVG Export Plug-In . SVG Version: 6.00 Build 0)  -->
<svg version="1.1" id="Capa_1" xmlns="http://www.w3.org/2000/svg" xmlns:xlink="http://www.w3.org/1999/xlink" x="0px" y="0px"
	 viewBox="0 0 15 15" style="enable-background:new 0 0 15 15;" xml:space="preserve">
<style type="text/css">
	.st0{fill:#004E58;}
</style>
<g id="Modo_de_aislamiento">
	<g>
		<path class="st0" d="M10.5,0h-6C3.2,0,2.3,1,2.3,2.2v10.6c0,1.2,1,2.2,2.2,2.2h6.1c1.2,0,2.2-1,2.2-2.2V2.2C12.7,1,11.8,0,10.5,0z
			 M4.5,1h6.1c0.7,0,1.2,0.5,1.2,1.2v8.5H3.3V2.2C3.3,1.6,3.8,1,4.5,1z M10.5,14h-6c-0.7,0-1.2-0.5-1.2-1.2v-1.1h8.4v1.1
			C11.7,13.4,11.2,14,10.5,14z"/>
		<path class="st0" d="M7.4,2.5c0.2,0,0.4-0.2,0.4-0.4S7.6,1.7,7.4,1.7C7.1,1.7,7,1.9,7,2.1S7.1,2.5,7.4,2.5z"/>
		<path class="st0" d="M7.4,12.3c-0.2,0-0.4,0.2-0.4,0.4s0.2,0.4,0.4,0.4c0.2,0,0.4-0.2,0.4-0.4S7.6,12.3,7.4,12.3z"/>
	</g>
</g>
</svg>
