<?xml version="1.0" encoding="utf-8"?>
<!-- Generator: Adobe Illustrator 24.0.1, SVG Export Plug-In . SVG Version: 6.00 Build 0)  -->
<svg version="1.1" xmlns="http://www.w3.org/2000/svg" xmlns:xlink="http://www.w3.org/1999/xlink" x="0px" y="0px"
	 viewBox="0 0 15 15" style="enable-background:new 0 0 15 15;" xml:space="preserve">
<style type="text/css">
	.st0{fill:#004E58;}
</style>
<g id="Capa_1">
	<g id="Capa_1_1_">
	</g>
</g>
<g id="Modo_de_aislamiento">
	<path class="st0" d="M14.9,2.8c-0.5,0.2-1,0.3-1.5,0.4c0.2,0,0.6-0.5,0.7-0.7c0.2-0.3,0.4-0.6,0.5-0.9c0,0,0-0.1,0-0.1
		c0,0-0.1,0-0.1,0c-0.6,0.3-1.2,0.5-1.8,0.7c-0.1,0-0.1,0-0.1,0c-0.1-0.1-0.1-0.1-0.2-0.2c-0.3-0.2-0.6-0.4-0.9-0.5
		c-0.4-0.2-0.9-0.2-1.3-0.2C9.9,1.4,9.4,1.5,9,1.7C8.6,1.9,8.3,2.2,8,2.5C7.7,2.9,7.5,3.3,7.4,3.8C7.3,4.2,7.3,4.6,7.4,5
		c0,0.1,0,0.1-0.1,0.1C4.8,4.7,2.8,3.9,1.1,2C1.1,1.9,1,1.9,1,2C0.2,3.1,0.6,4.8,1.5,5.7C1.6,5.8,1.7,5.9,1.9,6c0,0-0.7-0.1-1.2-0.3
		c-0.1,0-0.1,0-0.1,0.1c0,0.1,0,0.2,0,0.4c0.1,1.1,0.9,2.1,2,2.5c0.1,0.1,0.3,0.1,0.4,0.1c-0.2,0.1-0.5,0.1-1.2,0
		c-0.1,0-0.1,0-0.1,0.1c0.5,1.4,1.6,1.8,2.5,2.1c0.1,0,0.2,0,0.3,0c0,0,0,0,0,0c-0.3,0.4-1.2,0.7-1.7,0.9c-0.8,0.3-1.7,0.4-2.5,0.3
		c-0.1,0-0.2,0-0.2,0c0,0,0,0.1,0,0.1c0.2,0.1,0.4,0.2,0.5,0.3c0.5,0.3,1.1,0.5,1.7,0.7c3.1,0.8,6.5,0.2,8.8-2.1
		c1.8-1.8,2.4-4.3,2.4-6.7c0-0.1,0.1-0.2,0.2-0.2c0.5-0.4,0.8-0.8,1.2-1.2C15,3,15,2.9,14.9,2.8C15,2.8,15,2.8,14.9,2.8
		C15,2.8,15,2.8,14.9,2.8z"/>
</g>
</svg>
